<mxfile host="65bd71144e">
    <diagram id="uA4CGv25w6LDr2dUHk4I" name="Cloud Diagram">
        <mxGraphModel dx="385" dy="626" grid="1" gridSize="10" guides="1" tooltips="1" connect="1" arrows="1" fold="1" page="1" pageScale="1" pageWidth="1169" pageHeight="827" background="#2A2A2A" math="0" shadow="0">
            <root>
                <mxCell id="0"/>
                <mxCell id="1" parent="0"/>
                <mxCell id="3" value="E-Commerce Site" style="dashed=0;outlineConnect=0;html=1;align=center;labelPosition=center;verticalLabelPosition=bottom;verticalAlign=top;shape=mxgraph.webicons.amazon_2;gradientColor=#231F20" parent="1" vertex="1">
                    <mxGeometry x="40" y="40" width="80" height="80" as="geometry"/>
                </mxCell>
                <mxCell id="8" value="User" style="html=1;verticalLabelPosition=bottom;align=center;labelBackgroundColor=none;verticalAlign=top;strokeWidth=2;strokeColor=#FFFFFF;shadow=0;dashed=0;shape=mxgraph.ios7.icons.user;fillColor=none;" parent="1" vertex="1">
                    <mxGeometry x="865" y="220" width="80" height="80" as="geometry"/>
                </mxCell>
                <mxCell id="15" value="Products" style="html=1;whiteSpace=wrap;shape=isoCube2;backgroundOutline=1;isoAngle=15;fillColor=none;fontColor=#FFFFFF;strokeColor=#FFFFFF;labelPosition=center;verticalLabelPosition=bottom;align=center;verticalAlign=top;strokeWidth=2;" parent="1" vertex="1">
                    <mxGeometry x="390" y="100" width="80" height="80" as="geometry"/>
                </mxCell>
                <mxCell id="18" value="Order details" style="verticalLabelPosition=bottom;html=1;verticalAlign=top;align=center;strokeColor=default;fillColor=none;shape=mxgraph.azure.azure_marketplace;strokeWidth=2;" parent="1" vertex="1">
                    <mxGeometry x="1097" y="444.5" width="40" height="59" as="geometry"/>
                </mxCell>
                <mxCell id="20" value="Shipper" style="shape=mxgraph.signs.transportation.truck_1;html=1;pointerEvents=1;fillColor=none;strokeColor=default;verticalLabelPosition=bottom;verticalAlign=top;align=center;strokeWidth=2;" parent="1" vertex="1">
                    <mxGeometry x="464" y="639" width="120" height="61" as="geometry"/>
                </mxCell>
                <mxCell id="24" value="Cart &lt;br&gt;item" style="verticalLabelPosition=bottom;shadow=0;dashed=0;align=center;html=1;verticalAlign=top;strokeWidth=1;shape=mxgraph.mockup.misc.shoppingCart;strokeColor=#FFFFFF;fontColor=#FFFFFF;fillColor=#FFFFFF;" parent="1" vertex="1">
                    <mxGeometry x="622.75" y="308.25" width="55" height="44.75" as="geometry"/>
                </mxCell>
                <mxCell id="26" value="Payment details" style="html=1;verticalLabelPosition=bottom;align=center;labelBackgroundColor=none;verticalAlign=top;strokeWidth=2;strokeColor=#FFFFFF;shadow=0;dashed=0;shape=mxgraph.ios7.icons.wallet;fontColor=#FFFFFF;fillColor=default;" parent="1" vertex="1">
                    <mxGeometry x="754.75" y="70" width="40" height="40" as="geometry"/>
                </mxCell>
                <mxCell id="27" value="Supplier" style="strokeWidth=2;html=1;shape=mxgraph.lean_mapping.outside_sources;whiteSpace=wrap;align=center;labelBackgroundColor=none;fontColor=#FFFFFF;fillColor=none;labelPosition=center;verticalLabelPosition=bottom;verticalAlign=top;" vertex="1" parent="1">
                    <mxGeometry x="162.5" y="633" width="80" height="60" as="geometry"/>
                </mxCell>
                <mxCell id="30" value="Address" style="sketch=0;pointerEvents=1;shadow=0;dashed=0;html=1;strokeColor=default;labelPosition=center;verticalLabelPosition=bottom;verticalAlign=top;outlineConnect=0;align=center;shape=mxgraph.office.concepts.home;fillColor=none;labelBackgroundColor=none;fontColor=#FFFFFF;strokeWidth=2;" vertex="1" parent="1">
                    <mxGeometry x="875" y="40" width="50" height="40" as="geometry"/>
                </mxCell>
                <mxCell id="8LpUO45bTrdDOZuy6g8Q-131" style="edgeStyle=none;html=1;exitX=0.25;exitY=0.25;exitDx=0;exitDy=0;exitPerimeter=0;entryX=0.96;entryY=0.7;entryDx=0;entryDy=0;entryPerimeter=0;fontColor=#FFFFFF;endArrow=none;endFill=0;curved=1;" edge="1" parent="1" source="31" target="68">
                    <mxGeometry relative="1" as="geometry">
                        <Array as="points">
                            <mxPoint x="930" y="190"/>
                        </Array>
                    </mxGeometry>
                </mxCell>
                <mxCell id="8LpUO45bTrdDOZuy6g8Q-149" style="edgeStyle=none;curved=1;html=1;exitX=0.13;exitY=0.77;exitDx=0;exitDy=0;exitPerimeter=0;fontColor=#FFFFFF;endArrow=none;endFill=0;entryX=0.507;entryY=0.092;entryDx=0;entryDy=0;entryPerimeter=0;" edge="1" parent="1" source="31" target="8LpUO45bTrdDOZuy6g8Q-129">
                    <mxGeometry relative="1" as="geometry"/>
                </mxCell>
                <mxCell id="31" value="user_id" style="ellipse;shape=cloud;whiteSpace=wrap;html=1;align=center;labelBackgroundColor=none;fontColor=#FFFFFF;strokeColor=default;strokeWidth=2;fillColor=none;" vertex="1" parent="1">
                    <mxGeometry x="957" y="210" width="80" height="40" as="geometry"/>
                </mxCell>
                <mxCell id="32" value="username" style="ellipse;shape=cloud;whiteSpace=wrap;html=1;align=center;labelBackgroundColor=none;fontColor=#FFFFFF;strokeColor=default;strokeWidth=2;fillColor=none;" vertex="1" parent="1">
                    <mxGeometry x="1037" y="210" width="90" height="40" as="geometry"/>
                </mxCell>
                <mxCell id="33" value="password" style="ellipse;shape=cloud;whiteSpace=wrap;html=1;align=center;labelBackgroundColor=none;fontColor=#FFFFFF;strokeColor=default;strokeWidth=2;fillColor=none;" vertex="1" parent="1">
                    <mxGeometry x="1047" y="250" width="90" height="40" as="geometry"/>
                </mxCell>
                <mxCell id="34" value="email" style="ellipse;shape=cloud;whiteSpace=wrap;html=1;align=center;labelBackgroundColor=none;fontColor=#FFFFFF;strokeColor=default;strokeWidth=2;fillColor=none;" vertex="1" parent="1">
                    <mxGeometry x="967" y="250" width="80" height="40" as="geometry"/>
                </mxCell>
                <mxCell id="35" value="first_name" style="ellipse;shape=cloud;whiteSpace=wrap;html=1;align=center;labelBackgroundColor=none;fontColor=#FFFFFF;strokeColor=default;strokeWidth=2;fillColor=none;" vertex="1" parent="1">
                    <mxGeometry x="957" y="290" width="90" height="40" as="geometry"/>
                </mxCell>
                <mxCell id="36" value="last_name" style="ellipse;shape=cloud;whiteSpace=wrap;html=1;align=center;labelBackgroundColor=none;fontColor=#FFFFFF;strokeColor=default;strokeWidth=2;fillColor=none;" vertex="1" parent="1">
                    <mxGeometry x="1045" y="290" width="95" height="40" as="geometry"/>
                </mxCell>
                <mxCell id="39" value="address_id" style="ellipse;shape=cloud;whiteSpace=wrap;html=1;align=center;labelBackgroundColor=none;fontColor=#FFFFFF;strokeColor=default;strokeWidth=2;fillColor=none;" vertex="1" parent="1">
                    <mxGeometry x="1025" y="10" width="100" height="40" as="geometry"/>
                </mxCell>
                <mxCell id="8LpUO45bTrdDOZuy6g8Q-132" style="edgeStyle=none;curved=1;html=1;exitX=0.13;exitY=0.77;exitDx=0;exitDy=0;exitPerimeter=0;entryX=0.25;entryY=0.25;entryDx=0;entryDy=0;entryPerimeter=0;fontColor=#FFFFFF;endArrow=none;endFill=0;" edge="1" parent="1" source="40" target="31">
                    <mxGeometry relative="1" as="geometry">
                        <Array as="points">
                            <mxPoint x="900" y="140"/>
                        </Array>
                    </mxGeometry>
                </mxCell>
                <mxCell id="40" value="fk_user_id" style="ellipse;shape=cloud;whiteSpace=wrap;html=1;align=center;labelBackgroundColor=none;fontColor=#FFFFFF;strokeColor=default;strokeWidth=2;fillColor=none;" vertex="1" parent="1">
                    <mxGeometry x="925" y="10" width="100" height="40" as="geometry"/>
                </mxCell>
                <mxCell id="41" value="address_line1" style="ellipse;shape=cloud;whiteSpace=wrap;html=1;align=center;labelBackgroundColor=none;fontColor=#FFFFFF;strokeColor=default;strokeWidth=2;fillColor=none;" vertex="1" parent="1">
                    <mxGeometry x="933" y="50" width="120" height="40" as="geometry"/>
                </mxCell>
                <mxCell id="42" value="address_line2" style="ellipse;shape=cloud;whiteSpace=wrap;html=1;align=center;labelBackgroundColor=none;fontColor=#FFFFFF;strokeColor=default;strokeWidth=2;fillColor=none;" vertex="1" parent="1">
                    <mxGeometry x="925" y="90" width="120" height="40" as="geometry"/>
                </mxCell>
                <mxCell id="43" value="city" style="ellipse;shape=cloud;whiteSpace=wrap;html=1;align=center;labelBackgroundColor=none;fontColor=#FFFFFF;strokeColor=default;strokeWidth=2;fillColor=none;" vertex="1" parent="1">
                    <mxGeometry x="1045" y="50" width="95" height="40" as="geometry"/>
                </mxCell>
                <mxCell id="44" value="postal_code" style="ellipse;shape=cloud;whiteSpace=wrap;html=1;align=center;labelBackgroundColor=none;fontColor=#FFFFFF;strokeColor=default;strokeWidth=2;fillColor=none;" vertex="1" parent="1">
                    <mxGeometry x="1045" y="90" width="105" height="40" as="geometry"/>
                </mxCell>
                <mxCell id="45" value="telephone" style="ellipse;shape=cloud;whiteSpace=wrap;html=1;align=center;labelBackgroundColor=none;fontColor=#FFFFFF;strokeColor=default;strokeWidth=2;fillColor=none;" vertex="1" parent="1">
                    <mxGeometry x="937" y="130" width="100" height="40" as="geometry"/>
                </mxCell>
                <mxCell id="46" value="mobile" style="ellipse;shape=cloud;whiteSpace=wrap;html=1;align=center;labelBackgroundColor=none;fontColor=#FFFFFF;strokeColor=default;strokeWidth=2;fillColor=none;" vertex="1" parent="1">
                    <mxGeometry x="1047" y="130" width="85" height="40" as="geometry"/>
                </mxCell>
                <mxCell id="50" value="payment_id" style="ellipse;shape=cloud;whiteSpace=wrap;html=1;align=center;labelBackgroundColor=none;fontColor=#FFFFFF;strokeColor=default;strokeWidth=2;fillColor=none;" vertex="1" parent="1">
                    <mxGeometry x="528.25" y="10" width="100" height="40" as="geometry"/>
                </mxCell>
                <mxCell id="8LpUO45bTrdDOZuy6g8Q-134" style="edgeStyle=none;curved=1;html=1;entryX=0.25;entryY=0.25;entryDx=0;entryDy=0;entryPerimeter=0;fontColor=#FFFFFF;endArrow=none;endFill=0;exitX=0.875;exitY=0.5;exitDx=0;exitDy=0;exitPerimeter=0;" edge="1" parent="1" source="51" target="31">
                    <mxGeometry relative="1" as="geometry">
                        <Array as="points">
                            <mxPoint x="840" y="60"/>
                        </Array>
                    </mxGeometry>
                </mxCell>
                <mxCell id="51" value="fk_user_id" style="ellipse;shape=cloud;whiteSpace=wrap;html=1;align=center;labelBackgroundColor=none;fontColor=#FFFFFF;strokeColor=default;strokeWidth=2;fillColor=none;" vertex="1" parent="1">
                    <mxGeometry x="633.75" y="10" width="100" height="40" as="geometry"/>
                </mxCell>
                <mxCell id="52" value="payment_type" style="ellipse;shape=cloud;whiteSpace=wrap;html=1;align=center;labelBackgroundColor=none;fontColor=#FFFFFF;strokeColor=default;strokeWidth=2;fillColor=none;" vertex="1" parent="1">
                    <mxGeometry x="538.75" y="50" width="116" height="40" as="geometry"/>
                </mxCell>
                <mxCell id="53" value="provider" style="ellipse;shape=cloud;whiteSpace=wrap;html=1;align=center;labelBackgroundColor=none;fontColor=#FFFFFF;strokeColor=default;strokeWidth=2;fillColor=none;" vertex="1" parent="1">
                    <mxGeometry x="653.75" y="50" width="80" height="40" as="geometry"/>
                </mxCell>
                <mxCell id="54" value="account_no" style="ellipse;shape=cloud;whiteSpace=wrap;html=1;align=center;labelBackgroundColor=none;fontColor=#FFFFFF;strokeColor=default;strokeWidth=2;fillColor=none;" vertex="1" parent="1">
                    <mxGeometry x="555" y="90" width="106" height="40" as="geometry"/>
                </mxCell>
                <mxCell id="55" value="expiry" style="ellipse;shape=cloud;whiteSpace=wrap;html=1;align=center;labelBackgroundColor=none;fontColor=#FFFFFF;strokeColor=default;strokeWidth=2;fillColor=none;" vertex="1" parent="1">
                    <mxGeometry x="659.25" y="90" width="69" height="40" as="geometry"/>
                </mxCell>
                <mxCell id="56" value="item_id" style="ellipse;shape=cloud;whiteSpace=wrap;html=1;align=center;labelBackgroundColor=none;fontColor=#FFFFFF;strokeColor=default;strokeWidth=2;fillColor=none;" vertex="1" parent="1">
                    <mxGeometry x="775" y="313" width="100" height="40" as="geometry"/>
                </mxCell>
                <mxCell id="57" value="fk_session_id" style="ellipse;shape=cloud;whiteSpace=wrap;html=1;align=center;labelBackgroundColor=none;fontColor=#FFFFFF;strokeColor=default;strokeWidth=2;fillColor=none;" vertex="1" parent="1">
                    <mxGeometry x="695" y="280" width="120" height="40" as="geometry"/>
                </mxCell>
                <mxCell id="58" value="quantity" style="ellipse;shape=cloud;whiteSpace=wrap;html=1;align=center;labelBackgroundColor=none;fontColor=#FFFFFF;strokeColor=default;strokeWidth=2;fillColor=none;" vertex="1" parent="1">
                    <mxGeometry x="673.5" y="360" width="100" height="40" as="geometry"/>
                </mxCell>
                <mxCell id="61" value="Session" style="html=1;verticalLabelPosition=bottom;align=center;labelBackgroundColor=none;verticalAlign=top;strokeWidth=2;strokeColor=#FFFFFF;shadow=0;dashed=0;shape=mxgraph.ios7.icons.stopwatch;fontColor=#FFFFFF;fillColor=none;" vertex="1" parent="1">
                    <mxGeometry x="754.75" y="190" width="41.5" height="40" as="geometry"/>
                </mxCell>
                <mxCell id="8LpUO45bTrdDOZuy6g8Q-133" style="edgeStyle=none;curved=1;html=1;exitX=0.8;exitY=0.8;exitDx=0;exitDy=0;exitPerimeter=0;entryX=0.4;entryY=0.1;entryDx=0;entryDy=0;entryPerimeter=0;fontColor=#FFFFFF;endArrow=none;endFill=0;" edge="1" parent="1" source="67" target="57">
                    <mxGeometry relative="1" as="geometry"/>
                </mxCell>
                <mxCell id="67" value="session_id" style="ellipse;shape=cloud;whiteSpace=wrap;html=1;align=center;labelBackgroundColor=none;fontColor=#FFFFFF;strokeColor=default;strokeWidth=2;fillColor=none;" vertex="1" parent="1">
                    <mxGeometry x="661" y="150" width="100" height="40" as="geometry"/>
                </mxCell>
                <mxCell id="68" value="fk_user_id" style="ellipse;shape=cloud;whiteSpace=wrap;html=1;align=center;labelBackgroundColor=none;fontColor=#FFFFFF;strokeColor=default;strokeWidth=2;fillColor=none;" vertex="1" parent="1">
                    <mxGeometry x="754.75" y="140" width="100" height="40" as="geometry"/>
                </mxCell>
                <mxCell id="69" value="total" style="ellipse;shape=cloud;whiteSpace=wrap;html=1;align=center;labelBackgroundColor=none;fontColor=#FFFFFF;strokeColor=default;strokeWidth=2;fillColor=none;" vertex="1" parent="1">
                    <mxGeometry x="597" y="150" width="66" height="40" as="geometry"/>
                </mxCell>
                <mxCell id="70" value="created" style="ellipse;shape=cloud;whiteSpace=wrap;html=1;align=center;labelBackgroundColor=none;fontColor=#FFFFFF;strokeColor=default;strokeWidth=2;fillColor=none;" vertex="1" parent="1">
                    <mxGeometry x="595" y="195.5" width="70" height="40" as="geometry"/>
                </mxCell>
                <mxCell id="71" value="modified" style="ellipse;shape=cloud;whiteSpace=wrap;html=1;align=center;labelBackgroundColor=none;fontColor=#FFFFFF;strokeColor=default;strokeWidth=2;fillColor=none;" vertex="1" parent="1">
                    <mxGeometry x="664.75" y="190" width="70" height="40" as="geometry"/>
                </mxCell>
                <mxCell id="74" value="created" style="ellipse;shape=cloud;whiteSpace=wrap;html=1;align=center;labelBackgroundColor=none;fontColor=#FFFFFF;strokeColor=default;strokeWidth=2;fillColor=none;" vertex="1" parent="1">
                    <mxGeometry x="766" y="353" width="70" height="40" as="geometry"/>
                </mxCell>
                <mxCell id="75" value="modified" style="ellipse;shape=cloud;whiteSpace=wrap;html=1;align=center;labelBackgroundColor=none;fontColor=#FFFFFF;strokeColor=default;strokeWidth=2;fillColor=none;" vertex="1" parent="1">
                    <mxGeometry x="836" y="353" width="70" height="40" as="geometry"/>
                </mxCell>
                <mxCell id="8LpUO45bTrdDOZuy6g8Q-136" style="edgeStyle=none;curved=1;html=1;fontColor=#FFFFFF;endArrow=none;endFill=0;exitX=0.88;exitY=0.25;exitDx=0;exitDy=0;exitPerimeter=0;" edge="1" parent="1" source="76" target="84">
                    <mxGeometry relative="1" as="geometry">
                        <mxPoint x="630" y="290" as="targetPoint"/>
                        <mxPoint x="440" y="40" as="sourcePoint"/>
                        <Array as="points">
                            <mxPoint x="550" y="200"/>
                        </Array>
                    </mxGeometry>
                </mxCell>
                <mxCell id="76" value="prod_id" style="ellipse;shape=cloud;whiteSpace=wrap;html=1;align=center;labelBackgroundColor=none;fontColor=#FFFFFF;strokeColor=default;strokeWidth=2;fillColor=none;" vertex="1" parent="1">
                    <mxGeometry x="370" y="20" width="70" height="40" as="geometry"/>
                </mxCell>
                <mxCell id="77" value="prod_name" style="ellipse;shape=cloud;whiteSpace=wrap;html=1;align=center;labelBackgroundColor=none;fontColor=#FFFFFF;strokeColor=default;strokeWidth=2;fillColor=none;" vertex="1" parent="1">
                    <mxGeometry x="270" y="20" width="100" height="40" as="geometry"/>
                </mxCell>
                <mxCell id="78" value="desc" style="ellipse;shape=cloud;whiteSpace=wrap;html=1;align=center;labelBackgroundColor=none;fontColor=#FFFFFF;strokeColor=default;strokeWidth=2;fillColor=none;" vertex="1" parent="1">
                    <mxGeometry x="225" y="60" width="70" height="40" as="geometry"/>
                </mxCell>
                <mxCell id="79" value="barcode" style="ellipse;shape=cloud;whiteSpace=wrap;html=1;align=center;labelBackgroundColor=none;fontColor=#FFFFFF;strokeColor=default;strokeWidth=2;fillColor=none;" vertex="1" parent="1">
                    <mxGeometry x="295" y="60" width="70" height="40" as="geometry"/>
                </mxCell>
                <mxCell id="108" style="edgeStyle=none;html=1;exitX=0.8;exitY=0.8;exitDx=0;exitDy=0;exitPerimeter=0;entryX=0.25;entryY=0.25;entryDx=0;entryDy=0;entryPerimeter=0;fontColor=#FFFFFF;endArrow=none;endFill=0;" edge="1" parent="1" source="80" target="96">
                    <mxGeometry relative="1" as="geometry"/>
                </mxCell>
                <mxCell id="80" value="fk_category_id" style="ellipse;shape=cloud;whiteSpace=wrap;html=1;align=center;labelBackgroundColor=none;fontColor=#FFFFFF;strokeColor=default;strokeWidth=2;fillColor=none;" vertex="1" parent="1">
                    <mxGeometry x="272.5" y="100" width="110" height="40" as="geometry"/>
                </mxCell>
                <mxCell id="81" value="price" style="ellipse;shape=cloud;whiteSpace=wrap;html=1;align=center;labelBackgroundColor=none;fontColor=#FFFFFF;strokeColor=default;strokeWidth=2;fillColor=none;" vertex="1" parent="1">
                    <mxGeometry x="365" y="60" width="60" height="40" as="geometry"/>
                </mxCell>
                <mxCell id="82" value="fk_inventory_id" style="ellipse;shape=cloud;whiteSpace=wrap;html=1;align=center;labelBackgroundColor=none;fontColor=#FFFFFF;strokeColor=default;strokeWidth=2;fillColor=none;" vertex="1" parent="1">
                    <mxGeometry x="240" y="140" width="125" height="40" as="geometry"/>
                </mxCell>
                <mxCell id="83" value="fk_discount_id" style="ellipse;shape=cloud;whiteSpace=wrap;html=1;align=center;labelBackgroundColor=none;fontColor=#FFFFFF;strokeColor=default;strokeWidth=2;fillColor=none;" vertex="1" parent="1">
                    <mxGeometry x="155" y="100" width="125" height="40" as="geometry"/>
                </mxCell>
                <mxCell id="84" value="fk_prod_id" style="ellipse;shape=cloud;whiteSpace=wrap;html=1;align=center;labelBackgroundColor=none;fontColor=#FFFFFF;strokeColor=default;strokeWidth=2;fillColor=none;" vertex="1" parent="1">
                    <mxGeometry x="673" y="317.13" width="100.5" height="40" as="geometry"/>
                </mxCell>
                <mxCell id="90" style="edgeStyle=none;html=1;fontColor=#FFFFFF;endArrow=none;endFill=0;entryX=0.55;entryY=0.95;entryDx=0;entryDy=0;entryPerimeter=0;exitX=0.566;exitY=0.171;exitDx=0;exitDy=0;exitPerimeter=0;" edge="1" parent="1" source="91" target="82">
                    <mxGeometry relative="1" as="geometry"/>
                </mxCell>
                <mxCell id="88" value="Inventory" style="sketch=0;outlineConnect=0;fontColor=#FFFFFF;gradientColor=none;fillColor=#FFFFFF;strokeColor=none;dashed=0;verticalLabelPosition=bottom;verticalAlign=top;align=center;html=1;fontSize=12;fontStyle=0;aspect=fixed;pointerEvents=1;shape=mxgraph.aws4.inventory;labelBackgroundColor=none;" vertex="1" parent="1">
                    <mxGeometry x="242.5" y="369.75" width="50" height="50" as="geometry"/>
                </mxCell>
                <mxCell id="91" value="inventory_id" style="ellipse;shape=cloud;whiteSpace=wrap;html=1;align=center;labelBackgroundColor=none;fontColor=#FFFFFF;strokeColor=default;strokeWidth=2;fillColor=none;" vertex="1" parent="1">
                    <mxGeometry x="220" y="273" width="110" height="40" as="geometry"/>
                </mxCell>
                <mxCell id="92" value="quantity" style="ellipse;shape=cloud;whiteSpace=wrap;html=1;align=center;labelBackgroundColor=none;fontColor=#FFFFFF;strokeColor=default;strokeWidth=2;fillColor=none;" vertex="1" parent="1">
                    <mxGeometry x="220" y="319.5" width="95" height="40" as="geometry"/>
                </mxCell>
                <mxCell id="94" value="Category" style="html=1;verticalLabelPosition=bottom;align=center;labelBackgroundColor=none;verticalAlign=top;strokeWidth=2;strokeColor=#FFFFFF;shadow=0;dashed=0;shape=mxgraph.ios7.icons.folders_2;fontColor=#FFFFFF;fillColor=none;" vertex="1" parent="1">
                    <mxGeometry x="464" y="375.75" width="60" height="43.5" as="geometry"/>
                </mxCell>
                <mxCell id="96" value="category_id" style="ellipse;shape=cloud;whiteSpace=wrap;html=1;align=center;labelBackgroundColor=none;fontColor=#FFFFFF;strokeColor=default;strokeWidth=2;fillColor=none;" vertex="1" parent="1">
                    <mxGeometry x="425.25" y="279" width="110" height="40" as="geometry"/>
                </mxCell>
                <mxCell id="98" value="name" style="ellipse;shape=cloud;whiteSpace=wrap;html=1;align=center;labelBackgroundColor=none;fontColor=#FFFFFF;strokeColor=default;strokeWidth=2;fillColor=none;" vertex="1" parent="1">
                    <mxGeometry x="427.75" y="319" width="65" height="40" as="geometry"/>
                </mxCell>
                <mxCell id="99" value="desc" style="ellipse;shape=cloud;whiteSpace=wrap;html=1;align=center;labelBackgroundColor=none;fontColor=#FFFFFF;strokeColor=default;strokeWidth=2;fillColor=none;" vertex="1" parent="1">
                    <mxGeometry x="492.75" y="319" width="70" height="40" as="geometry"/>
                </mxCell>
                <mxCell id="107" style="edgeStyle=none;html=1;fontColor=#FFFFFF;endArrow=none;endFill=0;exitX=0.82;exitY=0.218;exitDx=0;exitDy=0;exitPerimeter=0;entryX=0.482;entryY=1.023;entryDx=0;entryDy=0;entryPerimeter=0;" edge="1" parent="1" source="102" target="83">
                    <mxGeometry relative="1" as="geometry">
                        <mxPoint x="250" y="210" as="targetPoint"/>
                    </mxGeometry>
                </mxCell>
                <mxCell id="101" value="Discount" style="shape=mxgraph.signs.travel.euro;html=1;pointerEvents=1;fillColor=#FFFFFF;strokeColor=none;verticalLabelPosition=bottom;verticalAlign=top;align=center;labelBackgroundColor=none;fontColor=#FFFFFF;" vertex="1" parent="1">
                    <mxGeometry x="70" y="376.25" width="40" height="43" as="geometry"/>
                </mxCell>
                <mxCell id="102" value="discount_id" style="ellipse;shape=cloud;whiteSpace=wrap;html=1;align=center;labelBackgroundColor=none;fontColor=#FFFFFF;strokeColor=default;strokeWidth=2;fillColor=none;" vertex="1" parent="1">
                    <mxGeometry x="35" y="235.5" width="110" height="40" as="geometry"/>
                </mxCell>
                <mxCell id="103" value="name" style="ellipse;shape=cloud;whiteSpace=wrap;html=1;align=center;labelBackgroundColor=none;fontColor=#FFFFFF;strokeColor=default;strokeWidth=2;fillColor=none;" vertex="1" parent="1">
                    <mxGeometry x="35" y="279.5" width="60" height="40" as="geometry"/>
                </mxCell>
                <mxCell id="104" value="desc" style="ellipse;shape=cloud;whiteSpace=wrap;html=1;align=center;labelBackgroundColor=none;fontColor=#FFFFFF;strokeColor=default;strokeWidth=2;fillColor=none;" vertex="1" parent="1">
                    <mxGeometry x="95" y="279.5" width="60" height="40" as="geometry"/>
                </mxCell>
                <mxCell id="105" value="active" style="ellipse;shape=cloud;whiteSpace=wrap;html=1;align=center;labelBackgroundColor=none;fontColor=#FFFFFF;strokeColor=default;strokeWidth=2;fillColor=none;" vertex="1" parent="1">
                    <mxGeometry x="100" y="324.5" width="60" height="40" as="geometry"/>
                </mxCell>
                <mxCell id="106" value="percent" style="ellipse;shape=cloud;whiteSpace=wrap;html=1;align=center;labelBackgroundColor=none;fontColor=#FFFFFF;strokeColor=default;strokeWidth=2;fillColor=none;" vertex="1" parent="1">
                    <mxGeometry x="30" y="319.5" width="70" height="40" as="geometry"/>
                </mxCell>
                <mxCell id="113" value="supplier_id" style="ellipse;shape=cloud;whiteSpace=wrap;html=1;align=center;labelBackgroundColor=none;fontColor=#FFFFFF;strokeColor=default;strokeWidth=2;fillColor=none;" vertex="1" parent="1">
                    <mxGeometry x="80.63" y="540" width="110" height="40" as="geometry"/>
                </mxCell>
                <mxCell id="114" value="supplier_name" style="ellipse;shape=cloud;whiteSpace=wrap;html=1;align=center;labelBackgroundColor=none;fontColor=#FFFFFF;strokeColor=default;strokeWidth=2;fillColor=none;" vertex="1" parent="1">
                    <mxGeometry x="185" y="540" width="130" height="40" as="geometry"/>
                </mxCell>
                <mxCell id="115" value="country" style="ellipse;shape=cloud;whiteSpace=wrap;html=1;align=center;labelBackgroundColor=none;fontColor=#FFFFFF;strokeColor=default;strokeWidth=2;fillColor=none;" vertex="1" parent="1">
                    <mxGeometry x="98.13" y="581.5" width="75" height="40" as="geometry"/>
                </mxCell>
                <mxCell id="116" value="city" style="ellipse;shape=cloud;whiteSpace=wrap;html=1;align=center;labelBackgroundColor=none;fontColor=#FFFFFF;strokeColor=default;strokeWidth=2;fillColor=none;" vertex="1" parent="1">
                    <mxGeometry x="173.13" y="580" width="60" height="40" as="geometry"/>
                </mxCell>
                <mxCell id="117" value="ZIP" style="ellipse;shape=cloud;whiteSpace=wrap;html=1;align=center;labelBackgroundColor=none;fontColor=#FFFFFF;strokeColor=default;strokeWidth=2;fillColor=none;" vertex="1" parent="1">
                    <mxGeometry x="233.13" y="581.5" width="58.75" height="40" as="geometry"/>
                </mxCell>
                <mxCell id="118" value="shipper_id" style="ellipse;shape=cloud;whiteSpace=wrap;html=1;align=center;labelBackgroundColor=none;fontColor=#FFFFFF;strokeColor=default;strokeWidth=2;fillColor=none;" vertex="1" parent="1">
                    <mxGeometry x="412.25" y="540" width="110" height="40" as="geometry"/>
                </mxCell>
                <mxCell id="119" value="shipper_name" style="ellipse;shape=cloud;whiteSpace=wrap;html=1;align=center;labelBackgroundColor=none;fontColor=#FFFFFF;strokeColor=default;strokeWidth=2;fillColor=none;" vertex="1" parent="1">
                    <mxGeometry x="513.25" y="540" width="130" height="40" as="geometry"/>
                </mxCell>
                <mxCell id="120" value="country" style="ellipse;shape=cloud;whiteSpace=wrap;html=1;align=center;labelBackgroundColor=none;fontColor=#FFFFFF;strokeColor=default;strokeWidth=2;fillColor=none;" vertex="1" parent="1">
                    <mxGeometry x="427.5" y="580" width="75" height="40" as="geometry"/>
                </mxCell>
                <mxCell id="121" value="city" style="ellipse;shape=cloud;whiteSpace=wrap;html=1;align=center;labelBackgroundColor=none;fontColor=#FFFFFF;strokeColor=default;strokeWidth=2;fillColor=none;" vertex="1" parent="1">
                    <mxGeometry x="504" y="580" width="60" height="40" as="geometry"/>
                </mxCell>
                <mxCell id="122" value="ZIP" style="ellipse;shape=cloud;whiteSpace=wrap;html=1;align=center;labelBackgroundColor=none;fontColor=#FFFFFF;strokeColor=default;strokeWidth=2;fillColor=none;" vertex="1" parent="1">
                    <mxGeometry x="564" y="578.5" width="58.75" height="40" as="geometry"/>
                </mxCell>
                <mxCell id="124" style="edgeStyle=none;html=1;fontColor=#FFFFFF;endArrow=none;endFill=0;exitX=0.472;exitY=0.928;exitDx=0;exitDy=0;exitPerimeter=0;entryX=0.4;entryY=0.1;entryDx=0;entryDy=0;entryPerimeter=0;" edge="1" parent="1" source="123" target="113">
                    <mxGeometry relative="1" as="geometry"/>
                </mxCell>
                <mxCell id="123" value="fk_supplier_id" style="ellipse;shape=cloud;whiteSpace=wrap;html=1;align=center;labelBackgroundColor=none;fontColor=#FFFFFF;strokeColor=default;strokeWidth=2;fillColor=none;" vertex="1" parent="1">
                    <mxGeometry x="170" y="180" width="125" height="40" as="geometry"/>
                </mxCell>
                <mxCell id="8LpUO45bTrdDOZuy6g8Q-126" style="edgeStyle=none;rounded=1;html=1;entryX=0.4;entryY=0.1;entryDx=0;entryDy=0;entryPerimeter=0;fontColor=#FFFFFF;endArrow=none;endFill=0;" edge="1" parent="1" source="8LpUO45bTrdDOZuy6g8Q-124" target="118">
                    <mxGeometry relative="1" as="geometry"/>
                </mxCell>
                <mxCell id="8LpUO45bTrdDOZuy6g8Q-124" value="fk_shipper_id" style="ellipse;shape=cloud;whiteSpace=wrap;html=1;align=center;labelBackgroundColor=none;fontColor=#FFFFFF;strokeColor=default;strokeWidth=2;fillColor=none;" vertex="1" parent="1">
                    <mxGeometry x="289.38" y="190" width="111.25" height="40" as="geometry"/>
                </mxCell>
                <mxCell id="8LpUO45bTrdDOZuy6g8Q-128" value="order_id" style="ellipse;shape=cloud;whiteSpace=wrap;html=1;align=center;labelBackgroundColor=none;fontColor=#FFFFFF;strokeColor=default;strokeWidth=2;fillColor=none;" vertex="1" parent="1">
                    <mxGeometry x="865" y="454" width="100" height="40" as="geometry"/>
                </mxCell>
                <mxCell id="8LpUO45bTrdDOZuy6g8Q-129" value="fk_user_id" style="ellipse;shape=cloud;whiteSpace=wrap;html=1;align=center;labelBackgroundColor=none;fontColor=#FFFFFF;strokeColor=default;strokeWidth=2;fillColor=none;" vertex="1" parent="1">
                    <mxGeometry x="875" y="414" width="100" height="40" as="geometry"/>
                </mxCell>
                <mxCell id="8LpUO45bTrdDOZuy6g8Q-137" value="total" style="ellipse;shape=cloud;whiteSpace=wrap;html=1;align=center;labelBackgroundColor=none;fontColor=#FFFFFF;strokeColor=default;strokeWidth=2;fillColor=none;" vertex="1" parent="1">
                    <mxGeometry x="970.25" y="414" width="100" height="40" as="geometry"/>
                </mxCell>
                <mxCell id="8LpUO45bTrdDOZuy6g8Q-157" style="edgeStyle=none;curved=1;html=1;entryX=0.625;entryY=0.2;entryDx=0;entryDy=0;entryPerimeter=0;fontColor=#FFFFFF;endArrow=none;endFill=0;exitX=0.89;exitY=0.826;exitDx=0;exitDy=0;exitPerimeter=0;" edge="1" parent="1" source="8LpUO45bTrdDOZuy6g8Q-138" target="8LpUO45bTrdDOZuy6g8Q-154">
                    <mxGeometry relative="1" as="geometry"/>
                </mxCell>
                <mxCell id="8LpUO45bTrdDOZuy6g8Q-138" value="fk_invoice_no" style="ellipse;shape=cloud;whiteSpace=wrap;html=1;align=center;labelBackgroundColor=none;fontColor=#FFFFFF;strokeColor=default;strokeWidth=2;fillColor=none;" vertex="1" parent="1">
                    <mxGeometry x="958.75" y="454" width="123" height="40" as="geometry"/>
                </mxCell>
                <mxCell id="8LpUO45bTrdDOZuy6g8Q-139" value="created" style="ellipse;shape=cloud;whiteSpace=wrap;html=1;align=center;labelBackgroundColor=none;fontColor=#FFFFFF;strokeColor=default;strokeWidth=2;fillColor=none;" vertex="1" parent="1">
                    <mxGeometry x="915.25" y="494" width="70" height="40" as="geometry"/>
                </mxCell>
                <mxCell id="8LpUO45bTrdDOZuy6g8Q-140" value="modified" style="ellipse;shape=cloud;whiteSpace=wrap;html=1;align=center;labelBackgroundColor=none;fontColor=#FFFFFF;strokeColor=default;strokeWidth=2;fillColor=none;" vertex="1" parent="1">
                    <mxGeometry x="985.25" y="494" width="70" height="40" as="geometry"/>
                </mxCell>
                <mxCell id="8LpUO45bTrdDOZuy6g8Q-142" value="Order items" style="sketch=0;outlineConnect=0;fontColor=#FFFFFF;gradientColor=none;fillColor=#FFFFFF;strokeColor=none;dashed=0;verticalLabelPosition=bottom;verticalAlign=top;align=center;html=1;fontSize=12;fontStyle=0;aspect=fixed;pointerEvents=1;shape=mxgraph.aws4.item;labelBackgroundColor=none;" vertex="1" parent="1">
                    <mxGeometry x="715" y="640" width="60" height="60" as="geometry"/>
                </mxCell>
                <mxCell id="8LpUO45bTrdDOZuy6g8Q-144" value="Order invoice" style="sketch=0;pointerEvents=1;shadow=0;dashed=0;html=1;strokeColor=none;fillColor=#EEEEEE;aspect=fixed;labelPosition=center;verticalLabelPosition=bottom;verticalAlign=top;align=center;outlineConnect=0;shape=mxgraph.vvd.document;labelBackgroundColor=none;fontColor=#FFFFFF;" vertex="1" parent="1">
                    <mxGeometry x="1081.75" y="650" width="42" height="57.53" as="geometry"/>
                </mxCell>
                <mxCell id="8LpUO45bTrdDOZuy6g8Q-146" style="edgeStyle=none;curved=1;html=1;entryX=0.13;entryY=0.77;entryDx=0;entryDy=0;entryPerimeter=0;fontColor=#FFFFFF;endArrow=none;endFill=0;exitX=0.625;exitY=0.2;exitDx=0;exitDy=0;exitPerimeter=0;" edge="1" parent="1" source="8LpUO45bTrdDOZuy6g8Q-145" target="8LpUO45bTrdDOZuy6g8Q-128">
                    <mxGeometry relative="1" as="geometry">
                        <mxPoint x="820" y="520" as="sourcePoint"/>
                    </mxGeometry>
                </mxCell>
                <mxCell id="8LpUO45bTrdDOZuy6g8Q-145" value="fk_order_id" style="ellipse;shape=cloud;whiteSpace=wrap;html=1;align=center;labelBackgroundColor=none;fontColor=#FFFFFF;strokeColor=default;strokeWidth=2;fillColor=none;" vertex="1" parent="1">
                    <mxGeometry x="745" y="510" width="100" height="40" as="geometry"/>
                </mxCell>
                <mxCell id="8LpUO45bTrdDOZuy6g8Q-148" style="edgeStyle=none;curved=1;html=1;entryX=0.875;entryY=0.5;entryDx=0;entryDy=0;entryPerimeter=0;fontColor=#FFFFFF;endArrow=none;endFill=0;" edge="1" parent="1" source="8LpUO45bTrdDOZuy6g8Q-147" target="76">
                    <mxGeometry relative="1" as="geometry">
                        <Array as="points">
                            <mxPoint x="620" y="380"/>
                        </Array>
                    </mxGeometry>
                </mxCell>
                <mxCell id="8LpUO45bTrdDOZuy6g8Q-147" value="fk_prod_id" style="ellipse;shape=cloud;whiteSpace=wrap;html=1;align=center;labelBackgroundColor=none;fontColor=#FFFFFF;strokeColor=default;strokeWidth=2;fillColor=none;" vertex="1" parent="1">
                    <mxGeometry x="647.75" y="510" width="100" height="40" as="geometry"/>
                </mxCell>
                <mxCell id="8LpUO45bTrdDOZuy6g8Q-150" value="items_id" style="ellipse;shape=cloud;whiteSpace=wrap;html=1;align=center;labelBackgroundColor=none;fontColor=#FFFFFF;strokeColor=default;strokeWidth=2;fillColor=none;" vertex="1" parent="1">
                    <mxGeometry x="645" y="549" width="100" height="40" as="geometry"/>
                </mxCell>
                <mxCell id="8LpUO45bTrdDOZuy6g8Q-151" value="quantity" style="ellipse;shape=cloud;whiteSpace=wrap;html=1;align=center;labelBackgroundColor=none;fontColor=#FFFFFF;strokeColor=default;strokeWidth=2;fillColor=none;" vertex="1" parent="1">
                    <mxGeometry x="745" y="550" width="79" height="40" as="geometry"/>
                </mxCell>
                <mxCell id="8LpUO45bTrdDOZuy6g8Q-152" value="created" style="ellipse;shape=cloud;whiteSpace=wrap;html=1;align=center;labelBackgroundColor=none;fontColor=#FFFFFF;strokeColor=default;strokeWidth=2;fillColor=none;" vertex="1" parent="1">
                    <mxGeometry x="669" y="589" width="70" height="40" as="geometry"/>
                </mxCell>
                <mxCell id="8LpUO45bTrdDOZuy6g8Q-153" value="modified" style="ellipse;shape=cloud;whiteSpace=wrap;html=1;align=center;labelBackgroundColor=none;fontColor=#FFFFFF;strokeColor=default;strokeWidth=2;fillColor=none;" vertex="1" parent="1">
                    <mxGeometry x="739" y="589" width="70" height="40" as="geometry"/>
                </mxCell>
                <mxCell id="8LpUO45bTrdDOZuy6g8Q-154" value="invoice_no" style="ellipse;shape=cloud;whiteSpace=wrap;html=1;align=center;labelBackgroundColor=none;fontColor=#FFFFFF;strokeColor=default;strokeWidth=2;fillColor=none;" vertex="1" parent="1">
                    <mxGeometry x="953.63" y="639" width="106.75" height="40" as="geometry"/>
                </mxCell>
                <mxCell id="8LpUO45bTrdDOZuy6g8Q-156" style="edgeStyle=none;curved=1;html=1;entryX=0.31;entryY=0.8;entryDx=0;entryDy=0;entryPerimeter=0;fontColor=#FFFFFF;endArrow=none;endFill=0;exitX=0.5;exitY=0.099;exitDx=0;exitDy=0;exitPerimeter=0;" edge="1" parent="1" source="8LpUO45bTrdDOZuy6g8Q-155" target="8LpUO45bTrdDOZuy6g8Q-128">
                    <mxGeometry relative="1" as="geometry"/>
                </mxCell>
                <mxCell id="8LpUO45bTrdDOZuy6g8Q-155" value="fk_order_id" style="ellipse;shape=cloud;whiteSpace=wrap;html=1;align=center;labelBackgroundColor=none;fontColor=#FFFFFF;strokeColor=default;strokeWidth=2;fillColor=none;" vertex="1" parent="1">
                    <mxGeometry x="850" y="639" width="100" height="40" as="geometry"/>
                </mxCell>
                <mxCell id="8LpUO45bTrdDOZuy6g8Q-158" value="amount" style="ellipse;shape=cloud;whiteSpace=wrap;html=1;align=center;labelBackgroundColor=none;fontColor=#FFFFFF;strokeColor=default;strokeWidth=2;fillColor=none;" vertex="1" parent="1">
                    <mxGeometry x="854.75" y="680" width="100" height="40" as="geometry"/>
                </mxCell>
                <mxCell id="8LpUO45bTrdDOZuy6g8Q-160" value="provider" style="ellipse;shape=cloud;whiteSpace=wrap;html=1;align=center;labelBackgroundColor=none;fontColor=#FFFFFF;strokeColor=default;strokeWidth=2;fillColor=none;" vertex="1" parent="1">
                    <mxGeometry x="957" y="680" width="77" height="40" as="geometry"/>
                </mxCell>
                <mxCell id="8LpUO45bTrdDOZuy6g8Q-161" value="status" style="ellipse;shape=cloud;whiteSpace=wrap;html=1;align=center;labelBackgroundColor=none;fontColor=#FFFFFF;strokeColor=default;strokeWidth=2;fillColor=none;" vertex="1" parent="1">
                    <mxGeometry x="845" y="720" width="65" height="40" as="geometry"/>
                </mxCell>
                <mxCell id="8LpUO45bTrdDOZuy6g8Q-162" value="created" style="ellipse;shape=cloud;whiteSpace=wrap;html=1;align=center;labelBackgroundColor=none;fontColor=#FFFFFF;strokeColor=default;strokeWidth=2;fillColor=none;" vertex="1" parent="1">
                    <mxGeometry x="915" y="720" width="70" height="40" as="geometry"/>
                </mxCell>
                <mxCell id="8LpUO45bTrdDOZuy6g8Q-163" value="modified" style="ellipse;shape=cloud;whiteSpace=wrap;html=1;align=center;labelBackgroundColor=none;fontColor=#FFFFFF;strokeColor=default;strokeWidth=2;fillColor=none;" vertex="1" parent="1">
                    <mxGeometry x="985" y="720" width="70" height="40" as="geometry"/>
                </mxCell>
            </root>
        </mxGraphModel>
    </diagram>
    <diagram id="pfOeWIazWm3u0HiB-wJ3" name="ER Diagram">
        <mxGraphModel dx="580" dy="626" grid="1" gridSize="10" guides="1" tooltips="1" connect="1" arrows="1" fold="1" page="1" pageScale="1" pageWidth="1169" pageHeight="827" math="0" shadow="0">
            <root>
                <mxCell id="XDR_hxvts-CRjyzbiIaX-0"/>
                <mxCell id="XDR_hxvts-CRjyzbiIaX-1" parent="XDR_hxvts-CRjyzbiIaX-0"/>
                <mxCell id="eoposD7i9D20CyBORghA-0" value="E-Commerce Site" style="rounded=0;whiteSpace=wrap;html=1;labelBackgroundColor=none;fontColor=#FFFFFF;strokeColor=default;strokeWidth=1;fillColor=none;" vertex="1" parent="XDR_hxvts-CRjyzbiIaX-1">
                    <mxGeometry x="40" y="40" width="160" height="80" as="geometry"/>
                </mxCell>
            </root>
        </mxGraphModel>
    </diagram>
    <diagram id="ZMcL1H6-MoCsOxmAkYsg" name="UML Classes">
        <mxGraphModel dx="820" dy="626" grid="1" gridSize="10" guides="1" tooltips="1" connect="1" arrows="1" fold="1" page="1" pageScale="1" pageWidth="1169" pageHeight="827" math="0" shadow="0">
            <root>
                <mxCell id="bHdeOxCzTRZ2v04SQsUZ-0"/>
                <mxCell id="bHdeOxCzTRZ2v04SQsUZ-1" parent="bHdeOxCzTRZ2v04SQsUZ-0"/>
            </root>
        </mxGraphModel>
    </diagram>
    <diagram id="ZXN1x3Ec3fNGPrU90A1T" name="Normalization">
        <mxGraphModel dx="820" dy="626" grid="1" gridSize="10" guides="1" tooltips="1" connect="1" arrows="1" fold="1" page="1" pageScale="1" pageWidth="1169" pageHeight="827" math="0" shadow="0">
            <root>
                <mxCell id="2kx312uoF0MOdlM_kc6i-0"/>
                <mxCell id="2kx312uoF0MOdlM_kc6i-1" parent="2kx312uoF0MOdlM_kc6i-0"/>
            </root>
        </mxGraphModel>
    </diagram>
</mxfile>